<?xml version="1.0" standalone="no"?>
<!DOCTYPE svg PUBLIC "-//W3C//DTD SVG 20010904//EN"
 "http://www.w3.org/TR/2001/REC-SVG-20010904/DTD/svg10.dtd">
<svg version="1.0" xmlns="http://www.w3.org/2000/svg"
 width="590.000000pt" height="590.000000pt" viewBox="0 0 590.000000 590.000000"
 preserveAspectRatio="xMidYMid meet">

<g transform="translate(0.000000,590.000000) scale(0.100000,-0.100000)"
fill="#000000" stroke="none">
<path d="M955 5894 c-307 -26 -545 -152 -735 -390 -102 -128 -171 -280 -201
-444 -21 -112 -21 -4119 0 -4230 69 -377 341 -679 716 -797 l90 -28 2130 0
2130 0 89 28 c178 56 299 129 431 262 132 132 207 255 262 432 l28 88 0 2130
0 2130 -28 89 c-98 312 -329 561 -620 668 -182 66 -17 62 -2237 63 -1108 1
-2033 0 -2055 -1z m2415 -872 c138 -38 174 -52 278 -103 444 -219 722 -668
722 -1164 0 -132 -24 -288 -60 -390 -12 -33 -24 -69 -27 -79 -13 -40 -91 -184
-139 -256 -49 -75 -199 -235 -262 -281 -19 -13 -39 -29 -45 -34 -15 -14 -173
-107 -207 -122 -79 -37 -120 -53 -132 -53 -8 0 -18 -4 -23 -9 -15 -13 -141
-40 -236 -51 -46 -5 -216 -10 -376 -10 l-293 0 0 -727 c0 -753 0 -745 -43
-846 -26 -59 -124 -155 -192 -188 -43 -20 -65 -23 -160 -24 -102 0 -114 2
-170 29 -76 38 -152 114 -190 191 l-30 60 0 1900 0 1900 28 55 c52 105 126
173 230 211 49 18 84 19 652 16 573 -4 603 -5 675 -25z"/>
<path d="M2570 3756 l0 -506 280 0 c308 0 347 5 457 62 118 60 216 181 258
319 19 64 17 205 -5 279 -31 104 -110 206 -211 271 -112 73 -110 73 -461 77
l-318 3 0 -505z"/>
</g>
</svg>
